<?xml version="1.0" encoding="UTF-8" standalone="no"?>
<svg width="800px" height="320px" viewBox="0 0 800 320" version="1.1" xmlns="http://www.w3.org/2000/svg" xmlns:xlink="http://www.w3.org/1999/xlink">
    <title>BMW X5 Silhouette</title>
    <g stroke="none" stroke-width="1" fill="none" fill-rule="evenodd">
        <!-- BMW X5 Silhouette -->
        <path d="M200,200 C200,200 250,170 300,170 C350,170 380,170 450,170 C520,170 550,170 600,170 C650,170 700,200 700,200 L700,220 C700,220 650,250 600,250 C550,250 530,250 500,250 C470,250 450,250 350,250 C250,250 230,250 200,220 L200,200 Z" fill="#FFFFFF"></path>
        <!-- Windows -->
        <path d="M300,170 C300,170 320,120 340,120 C360,120 440,120 460,120 C480,120 500,170 500,170 L300,170 Z" fill="#333333"></path>
        <!-- Wheels -->
        <circle cx="280" cy="240" r="30" fill="#333333"></circle>
        <circle cx="620" cy="240" r="30" fill="#333333"></circle>
        <!-- Headlights -->
        <path d="M200,200 C200,200 220,190 230,190 L230,210 C220,210 200,200 200,200 Z" fill="#CCCCCC"></path>
        <!-- Taillights -->
        <path d="M700,200 C700,200 680,190 670,190 L670,210 C680,210 700,200 700,200 Z" fill="#CCCCCC"></path>
    </g>
</svg>